<?xml version="1.0" encoding="UTF-8" standalone="no"?>
<svg
  xmlns:dc="http://purl.org/dc/elements/1.1/"
  xmlns:cc="http://creativecommons.org/ns#"
  xmlns:rdf="http://www.w3.org/1999/02/22-rdf-syntax-ns#"
  xmlns:svg="http://www.w3.org/2000/svg"
  xmlns="http://www.w3.org/2000/svg"
  viewBox="0 0 63.333332 53.333332"
  xml:space="preserve"
  id="svg2"
  version="1.1"><metadata
     id="metadata8"><rdf:RDF><cc:Work
         rdf:about=""><dc:format>image/svg+xml</dc:format><dc:type
           rdf:resource="http://purl.org/dc/dcmitype/StillImage" /></cc:Work></rdf:RDF></metadata><defs
     id="defs6" /><g
     transform="matrix(1.3333333,0,0,-1.3333333,0,53.333333)"
     id="g10"><g
       transform="scale(0.1)"
       id="g12"><path
         id="path14"
         style="fill:#1b1919;fill-opacity:1;fill-rule:nonzero;stroke:none"
         d="m 232.031,305.891 c -51.301,0 -102.601,-0.289 -153.8904,0.179 -15.1523,0.141 -23.6914,-11.761 -23.6211,-23.48 0.3789,-63.91 0.1719,-127.809 0.1914,-191.7189 0,-14.2109 8.7579,-23.0898 23.0196,-23.0898 103.0195,-0.043 206.0395,0.0195 309.0505,-0.0625 15.528,-0.0079 22.891,12.0312 22.848,22.9218 -0.277,64.1874 -0.129,128.3794 -0.16,192.5704 0,2.25 -0.047,4.57 -0.571,6.738 -2.41,10.012 -10.66,15.93 -22.128,15.93 -51.579,0.019 -103.161,0.012 -154.739,0.012 z M 231.852,56.1602 c -51.024,0 -102.043,0.0781 -153.0629,-0.0586 -12.9883,-0.0313 -23.5,4.2265 -30.75,15.3476 -3.5899,5.5 -5.168,11.6406 -5.168,18.1094 -0.043,65.3324 -0.0898,130.6714 0.0195,196.0004 0.0313,17.613 14.2188,31.863 31.8399,32.14 16.0078,0.262 32.0315,0.09 48.0395,0.09 87.871,0 175.73,-0.051 263.601,0.063 13.68,0.019 24.348,-5.082 30.828,-17.161 2.321,-4.32 3.903,-9.64 3.922,-14.5 0.25,-66.179 0.25,-132.371 0.098,-198.5504 -0.039,-16.3203 -13.289,-29.9492 -29.52,-31.1718 -2.679,-0.1993 -5.379,-0.3086 -8.058,-0.3086 -50.602,0 -101.2,0 -151.789,0" /><path
         id="path16"
         style="fill:#1b1919;fill-opacity:1;fill-rule:nonzero;stroke:none"
         d="m 75.3711,282.691 c 3.7773,0 7.3906,0 11.2305,0 0,-63.91 0,-127.582 0,-191.6129 -3.6719,0 -7.2618,0 -11.2305,0 0,63.6409 0,127.4099 0,191.6129" /><path
         id="path18"
         style="fill:#1b1919;fill-opacity:1;fill-rule:nonzero;stroke:none"
         d="m 389.238,90.9492 c -3.726,0 -7.218,0 -11.109,0 0,63.7888 0,127.6018 0,191.6918 3.562,0 7.172,0 11.109,0 0,-63.832 0,-127.641 0,-191.6918" /><path
         id="path20"
         style="fill:#1b1919;fill-opacity:1;fill-rule:nonzero;stroke:none"
         d="m 125.602,282.719 c 3.886,0 7.507,0 11.347,0 0,-56.66 0,-113.11 0,-169.77 -3.808,0 -7.429,0 -11.347,0 0,56.473 0,112.922 0,169.77" /><path
         id="path22"
         style="fill:#1b1919;fill-opacity:1;fill-rule:nonzero;stroke:none"
         d="m 151.012,282.781 c 3.777,0 7.289,0 11.148,0 0,-56.57 0,-113.019 0,-169.761 -3.601,0 -7.211,0 -11.148,0 0,56.402 0,112.851 0,169.761" /><path
         id="path24"
         style="fill:#1b1919;fill-opacity:1;fill-rule:nonzero;stroke:none"
         d="m 176.07,282.77 c 3.782,0 7.289,0 11.129,0 0,-56.551 0,-113 0,-169.75 -3.551,0 -7.16,0 -11.129,0 0,56.378 0,112.82 0,169.75" /><path
         id="path26"
         style="fill:#1b1919;fill-opacity:1;fill-rule:nonzero;stroke:none"
         d="m 212.602,112.852 c -3.84,0 -7.372,0 -11.243,0 0,56.57 0,113.117 0,169.867 3.731,0 7.352,0 11.243,0 0,-56.547 0,-113 0,-169.867" /><path
         id="path28"
         style="fill:#1b1919;fill-opacity:1;fill-rule:nonzero;stroke:none"
         d="m 237.879,112.871 c -3.879,0 -7.391,0 -11.207,0 0,56.59 0,113.039 0,169.777 3.648,0 7.269,0 11.207,0 0,-56.468 0,-112.929 0,-169.777" /><path
         id="path30"
         style="fill:#1b1919;fill-opacity:1;fill-rule:nonzero;stroke:none"
         d="m 262.91,112.871 c -3.879,0 -7.398,0 -11.211,0 0,56.59 0,113.039 0,169.777 3.711,0 7.313,0 11.211,0 0,-56.5 0,-112.949 0,-169.777" /><path
         id="path32"
         style="fill:#1b1919;fill-opacity:1;fill-rule:nonzero;stroke:none"
         d="m 288.289,112.949 c -3.949,0 -7.578,0 -11.367,0 0,56.672 0,113.121 0,169.77 3.848,0 7.469,0 11.367,0 0,-56.539 0,-113 0,-169.77" /><path
         id="path34"
         style="fill:#1b1919;fill-opacity:1;fill-rule:nonzero;stroke:none"
         d="m 302.352,282.781 c 3.886,0 7.398,0 11.218,0 0,-56.609 0,-113.07 0,-169.781 -3.711,0 -7.308,0 -11.218,0 0,56.48 0,112.93 0,169.781" /><path
         id="path36"
         style="fill:#1b1919;fill-opacity:1;fill-rule:nonzero;stroke:none"
         d="m 338.59,112.859 c -3.879,0 -7.391,0 -11.211,0 0,56.582 0,113.039 0,169.782 3.699,0 7.312,0 11.211,0 0,-56.481 0,-112.93 0,-169.782" /><path
         id="path38"
         style="fill:#1b1919;fill-opacity:1;fill-rule:nonzero;stroke:none"
         d="m 352.691,282.738 c 3.84,0 7.457,0 11.321,0 0,-56.636 0,-113.09 0,-169.777 -3.75,0 -7.383,0 -11.321,0 0,56.43 0,112.867 0,169.777" /><path
         id="path40"
         style="fill:#1b1919;fill-opacity:1;fill-rule:nonzero;stroke:none"
         d="m 100.391,282.77 c 3.781,0 7.289,0 11.129,0 0,-56.559 0,-113 0,-169.739 -3.551,0 -7.161,0 -11.129,0 0,56.367 0,112.809 0,169.739" /></g></g></svg>