<svg id="Post_9_Post_8_Post_7_Post_6_Post_5_Post_4_Post_3_Post_2_Post_1_Imagem" data-name="Post 9 + Post 8 + Post 7 + Post 6 + Post 5 + Post 4 + Post 3 + Post 2 + Post 1 Imagem" xmlns="http://www.w3.org/2000/svg" viewBox="0 0 119.08 125.28"><path d="M52.68,111.14,50,111c-.4,0-.79,0-1.31,0v-4.1H40.56v-4.12h4v-4.1h8.23v-3.2c0-2.7,0-5.4,0-8.1a8.46,8.46,0,0,0-.1-.88h0c.69,0,1.38-.15,2.06-.15,2.09,0,4.18.05,6.26.08l0,0v8.06h4.23v-4h4v4h4V82.15H69.18l0,0v-4l0,0H73.3V73.93H69.18l0,0v-4l0,0h8.25l0,0v4h4.24l0,0v4.12H93.88V73.93l0,0H98.1l0,0c0,3.7,0,7.41-.07,11.11v1.28H94v4h4v8.23h4v4.35l0,0-3.93-.24v8.23H102V115H73.42v-8.1h8.15v4h4v-4.12H90c-.07,1.37-.13,2.74-.2,4.13h4v-4.1H89.93l-.23-4h-4V98.69h-4v4H69.27V115H65.16V102.76H61V98.68H57v4.06H52.79c0,2.37,0,4.6,0,6.83,0,.53-.08,1.06-.12,1.59Zm24.8-16.71a3.1,3.1,0,0,0,.47.09c3.7,0,7.4,0,11.11,0,.68,0,.74-.34.73-.88,0-3.53,0-7.07,0-10.61,0-.25,0-.51-.07-.78H77.48Z"/><path d="M73.4,28.81c0,1.33,0,2.67,0,4h-4.1V41h4.08V32.79h4V45.2h4.13v4h4l0,0v4.26h8.3V57.5l0,0H85.73v8.31h4.09v4.13h4v4l0,0H81.63l0,0v-4H77.41l0,0V65.82H69.18V70l0,0H61V65.7l0,0h4.19V61.67H81.5V57.5H77.39V49.26h-4l0,0v-4H69.19v4l0,0H61l0,0v-4l0,0h4.13V33c-.38,0-.76-.05-1.15-.05-3.36,0-6.73,0-10.09,0a9.36,9.36,0,0,1-1.17-.15l0,0v-3.9h4.22V16.47h8.2v-4h4.1v4H73.4v4.16l0,0H65.16c0,1.41,0,2.7,0,4l-4.08.2v4h4V24.54l4.12.23v4.06h4.17Z"/><path d="M81.63,41V12.42h28.63V41Zm24.5-4V16.55H85.75V37Z"/><path d="M7.65,41.05V12.44H36.31V41.05ZM32.23,37V16.57H11.81V37Z"/><path d="M36.29,115H7.7V86.38H36.29Zm-4.1-4.14V90.44H11.8v20.44Z"/><path d="M28.08,65.71h-4v1.17c0,3.42,0,6.85,0,10.27,0,.37,0,.73-.07,1.09l0,0H19.94v3.92H7.68v-4h8.1V74H7.68V69.92h4V65.81H15.8v4h4.13c0-.66,0-1.32,0-2l-.15-6.07h0L24,61.6V57.51h8.27l0,0v4.24l0,0H28.07v4Z"/><path d="M32.31,57.51v-4h3.95V49.36h-8v-4h16.3v4h-4v4.15h3.86V61.8l0,0-8.16-.08,0,0V57.48h-4Z"/><path d="M61,65.7H57V57.59H48.79V53.48H57V49.25l0,0h4l0,0V53.4h8.25V49.26l0,0h4.24l0,0v8.29H61v8.18Z"/><path d="M52.68,86.46h-4V82.26h-4v4.16h4v4H44.6v4.09H40.52V82.22H32.33V78.16c.25,0,.47,0,.7,0q9.53,0,19,0a5.4,5.4,0,0,1,.69.08l0,0-.09,8.31Z"/><path d="M48.83,32.73,46,32.9c-.42,0-.85,0-1.38,0v8.16h-4V16.53h4v4h4.17v1.18c0,3.34,0,6.69,0,10,0,.33.06.65.09,1Z"/><path d="M85.58,49.2V45.33H106.2v4h4v8.21h-4v-4h-4.1V49.33H86.94a12.9,12.9,0,0,1-1.38-.14Z"/><path d="M110.26,94.49h-4V78.19h4Z"/><path d="M61,86.4V78.18h4.23l0,0v4h4l0,0v4.22H61Z"/><path d="M106,61.79h4.27V73.93h-4v-1.1q0-5,0-10a5.21,5.21,0,0,0-.2-1Z"/><path d="M52.77,78.19V69.94h4.09v8.22H52.75Z"/><path d="M93.86,57.5h4.21v8.23l0,0H93.88V57.48Z"/><path d="M7.68,57.58h4v8.13h-4Z"/><path d="M52.67,111.16c.11-.06.23-.18.35-.18H61v4H52.69v-3.85Z"/><path d="M98.07,65.73h4v8.2h-4l0,0V65.7Z"/><path d="M102,102.94c.09,0,.17-.15.25-.15h8v4H102v-3.87Z"/><path d="M73.4,20.61h4v8.2h-4l0,0V20.58Z"/><path d="M57,49.25H48.8v-4H57l0,0v4Z"/><path d="M48.82,32.74l3.87,0,0,0c0,1.56.09,3.13.12,4.69,0,1.17,0,2.34,0,3.59h-4V32.73Z"/><path d="M57,45.28V37.1h4v8.18l0,0H57Z"/><path d="M32.28,65.7,32.23,70l0,0H28.08V65.73h4.24Z"/><path d="M106,61.78h-3.84V57.59h4.15l-.33,4.2Z"/><path d="M24,53.42H20v-4h4Z"/><path d="M7.67,53.4V49.32c1.2,0,2.36,0,3.51,0a.76.76,0,0,1,.52.52c.05,1.15,0,2.31,0,3.54Z"/><path d="M19.78,61.78H15.92V57.61H20c-.08,1.43-.17,2.81-.25,4.18Z"/><path d="M44.43,61.8h4.23v3.89h-4c-.06-1.34-.12-2.63-.19-3.91Z"/><path d="M48.68,70V73.9h-4V70Z"/><path d="M65.21,78.18V74h4l0,0v4.24l0,0h-4Z"/><path d="M106.27,115v-4h4v4Z"/><path d="M77.4,12.42v4h-4v-4Z"/><path d="M52.76,12.44v4h-4v-4Z"/><path d="M15.89,45.27h4v4h-4Z"/><path d="M32.23,70h4.05v3.91h-4V70Z"/><path d="M36.29,61.7v4h-4l0,0v-4l0,0h4Z"/><path d="M24,78.24l4.1-.19v4.07H24v-3.9Z"/><path d="M85.59,90.36h-4v-4h4Z"/><path d="M89.86,20.63H102V32.84H89.86Z"/><path d="M15.89,20.62H28.07V32.81H15.89Z"/><path d="M15.91,94.58H28.09v12.2H15.91Z"/></svg>